<?xml version="1.0" encoding="UTF-8"?>
<svg id="Calque_2" data-name="Calque 2" xmlns="http://www.w3.org/2000/svg" viewBox="0 0 628.82 299.16">
  <g id="Simplification_3" data-name="Simplification 3">
    <g>
      <path d="M264.8,114.42l-2.4-2.26-4.71,2.75c-.58-7.95-5.3-4.69-8.09-5.67-.52-.18-7.7-5.95-8.59-6.77-.5-.46-.32-2.1-1.2-2.76-2.31-1.73-9.42-1.67-11.47,1.02,4.04,2.27,9.12,4.5,12.49,7.75,1.44,1.39,4.58,6.64,5.32,7.04.37.2,5.55-.45,8.2.4.72.23.7,1.58,1.33,1.68,2.01.34,4.76-1.42,7.27.74l1.84-3.93Z"/>
      <path d="M370.96,117.61c.63-.11.61-1.45,1.33-1.68,2.65-.85,7.84-.2,8.2-.4.74-.4,3.89-5.66,5.32-7.04,3.37-3.26,8.45-5.48,12.49-7.75-2.04-2.69-9.16-2.75-11.47-1.02-.89.66-.7,2.3-1.2,2.76-.89.82-8.08,6.59-8.59,6.77-2.79.99-7.51-2.27-8.09,5.67l-4.71-2.75-2.4,2.26,1.84,3.93c2.51-2.16,5.26-.4,7.27-.74Z"/>
      <g>
        <path d="M328.74,139.8c7.72.23,2.05,5.46-.82,9.39-2.39-3.67-12.93-7.61-24.01-7.61s-9.76-4.55-6.6-3.65c4.72-5.54,16.28-1.76,21.46,1.08,5.19,2.83,9.69-3.63,9.97.79Z"/>
        <path d="M324.14,157.65c5.52,3.8-9.47,8.5-14.07,4.34-6.78,1.47-10.4-2.07-9.36-9.23,7.19,3.24,17.91,1.09,23.43,4.89Z"/>
        <path d="M315.37,182.57c-2.63,3.25-10.45-.33-7.42-4.93-1.49-2.71,7.99.03,10.08-1.45,4.61-.17.69,9.44-2.66,6.38Z"/>
        <path d="M317.38,195.63c3.65,1.35-4.25,5.12-4.97,2.7.42-5.68,7.13-7.41,4.97-2.7Z"/>
        <path d="M323.29,115.19c-.38-.06-5.15,3.98-9.91,4s-9.56-3.97-9.91-3.92c-1.17,1.64-2.54,3.42-2.23,5.57,2.83-1.99,8.24,2.06,12.21,2.06s9.29-4.09,12.07-2.14c.31-2.15-1.05-3.93-2.22-5.56Z"/>
      </g>
      <path d="M314.56,276.05s0,.01-.01.02c4.3-1.04,8.74-.79,13.08-.06,4.8.82,15.53,4.16,27.24,5.89,10.34,1.53,21.85,1.54,24.98,1.16,26.8-3.24,67.51-16.32,78.96-43.48,2.09-4.95-.18-9.41-3.4-12.36-3.02-2.77-.35-7.92,2.62-7.26s10.14.21,16.09,2.5c18.26,7.02,7.1,21.73-3.74,31.87-10.84,10.15-59.96,37.43-88.8,42.71-23.71,4.34-54.59,3.83-67.64-19.9"/>
      <path d="M314.12,276.05s0,.01.01.02c-4.3-1.04-8.74-.79-13.08-.06-4.8.82-15.53,4.16-27.24,5.89-10.34,1.53-21.85,1.54-24.98,1.16-26.8-3.24-67.51-16.32-78.96-43.48-2.09-4.95.18-9.41,3.4-12.36,3.02-2.77.35-7.92-2.62-7.26s-10.14.21-16.09,2.5c-18.26,7.02-7.1,21.73,3.74,31.87,10.84,10.15,59.96,37.43,88.8,42.71,23.71,4.34,54.59,3.83,67.64-19.9"/>
      <g>
        <path d="M314.15,53.98c10.69.9,17.65,2.4,26.61,10.89,1.13,1.07,14.94,11.36,22.8,13.54,7.86,2.17,58.48,5.9,67.45,6.17,8.97.27,21.86,2.37,22.04,4.81s-80.57,33.5-81.92,35.13c-1.11,1.35-.56,3.47.06,4.96.57,1.36,3.67,5.85,4.69,7.09,3.93,4.78,27.05,23.25,30.6,25.64,6.96,4.68,42.83,46.22,48.32,50.09,5.49,3.87,12.37,5.52,18.69,6.02,27.37,2.19,55.74-21.1,77.26-34.79,10.55-6.71,52.15-32.28,57.26-33.44,3.61-2.03,2.98-8.83,5.25-11.08,2.84-2.8,7.73,1.27,12.29-3.13,8.36-8.08-1.4-25.68-6.13-33.81-9.02-15.54-28.05-25.82-45.03-30.25-17.99-4.7-36.72-3.83-55.18-4.23-27.23-.59-107.76-.93-118.39-2.24-2.29-.28-51.51-.66-62.12-14.97-1.96-2.64-1.97-3.25-3.47-3.55s-4.42.47-5.61.18-6.17-3.29-6.56-3.9c2.98.76,4.09-.43,6.35-1.59s21.31-10.3,27.57-13.67c6.27-3.37,24.14-19.84,24.11-20.36s-3.13-.97-3.17-1.12c-.02-.07,1.94-.69,3.84-1.92,2.48-1.6,5-3.93,4.31-4.43-.7-.51-27.8,9.63-37.3,15.49-9.5,5.86-21.51,17.79-22.35,19.41-.85,1.66-1.03,4.93-1.98,6.06-.77.92-2.43.26-2.31,1.67,0,0-.58-.76-1.34-.9s-6.8,1-6.8,1M485.81,126.75c-6.66-12.3-5.2-24.41,10.65-26.54,7.23-.97,15.15,5.79,18.89,11.51,8.6,13.15-5.36,28.27-19.39,24.44-5.17-1.41-7.71-4.91-10.15-9.41ZM477.89,98.65c5.91-4.88,17.49-6.3,24.9-5.43,3.21.38,9.28,1.91,9.87,5.73-8.45-.83-17.95-6.75-31.1,3.61-13.15,10.35,4.75,30.12,2.06,31.98-11.15-6.41-16.52-26.97-5.73-35.87Z"/>
        <path d="M314.81,42.75s-6.04-1.14-6.8-1-1.34.9-1.34.9c.12-1.41-1.53-.75-2.31-1.67-.95-1.13-1.13-4.4-1.98-6.06-.84-1.62-12.85-13.55-22.35-19.41C270.52,9.65,243.42-.49,242.72.02c-.68.5,1.84,2.83,4.31,4.43,1.9,1.23,3.86,1.85,3.84,1.92-.04.16-3.14.61-3.17,1.12s17.85,16.98,24.11,20.36,25.31,12.51,27.57,13.67,3.37,2.34,6.35,1.59c-.38.61-5.37,3.6-6.56,3.9s-4.11-.47-5.61-.18-1.51.9-3.47,3.55c-10.61,14.31-59.83,14.69-62.12,14.97-10.62,1.31-91.15,1.64-118.39,2.24-18.45.4-37.18-.47-55.18,4.23-16.98,4.44-36.01,14.71-45.03,30.25-4.73,8.14-14.49,25.73-6.13,33.81,4.56,4.4,9.44.33,12.29,3.13,2.27,2.24,1.65,9.05,5.25,11.08,5.11,1.15,46.72,26.73,57.26,33.44,21.52,13.68,49.89,36.98,77.26,34.79,6.32-.51,13.2-2.16,18.69-6.02,5.49-3.87,41.36-45.41,48.32-50.09,3.55-2.39,26.67-20.86,30.6-25.64,1.02-1.24,4.12-5.73,4.69-7.09.62-1.49,1.18-3.61.06-4.96-1.35-1.63-82.1-32.69-81.92-35.13s13.07-4.54,22.04-4.81c8.97-.27,59.59-3.99,67.45-6.17,7.86-2.17,21.66-12.46,22.8-13.54,8.96-8.48,15.92-9.99,26.61-10.89M132.87,136.16c-14.03,3.82-27.99-11.29-19.39-24.44,3.74-5.72,11.66-12.48,18.89-11.51,15.85,2.13,17.31,14.24,10.65,26.54-2.44,4.5-4.97,8-10.15,9.41ZM145.2,134.53c-2.69-1.86,15.21-21.62,2.06-31.98-13.15-10.35-22.65-4.44-31.1-3.61.59-3.82,6.67-5.35,9.87-5.73,7.41-.87,19,.55,24.9,5.43,10.78,8.9,5.41,29.46-5.73,35.87Z"/>
      </g>
      <path d="M184.76,211.92c-.99,1.83-1.45,4.61-.02,5.45s3.04-1.33,3.86-.92-.3,7.82,1.15,9.51c3.21,3.74,6.67-4.34,9.96-4.57,2.98-.2,9.34,6.34,9.75,5.49s-4.67-5.29-7.08-9.26c-2.41-3.97-2.76-7.33-2.73-10.55s1.72-7.85,1.34-8.24c-.74-.77-15.25,11.26-16.24,13.09Z"/>
      <path d="M423.25,197.2c-.38.39,1.31,5.03,1.34,8.24s-.31,6.58-2.73,10.55c-2.41,3.97-7.49,8.4-7.08,9.26s6.77-5.69,9.75-5.49c3.28.22,6.74,8.31,9.96,4.57,1.45-1.69.33-9.1,1.15-9.51s2.43,1.76,3.86.92.98-3.62-.02-5.45-15.5-13.86-16.24-13.09Z"/>
      <g>
        <path d="M208.72,215.13c6.65,11.19,27.32,4.94,26.63-8-.48-9.01-6.92-20.07-17.32-18.33-3.63.61-8.54,4.2-10.11,7.58-2,4.33-1.67,14.61.79,18.75Z"/>
        <path d="M215.44,187.11c7.73-3.21,14.19-1.72,18.21,5.81,2.55,4.76,3.85,10.8,4.55,16.04.42.49.76.1,1.03-.64.5-1.34.16-3.63.13-4.11-1.04-12.44-6.89-24.46-20.78-22.11-2.07.35-9.96,3.45-9.02,6.31.79,2.42,4.67-.8,5.87-1.3Z"/>
        <g>
          <path d="M415.07,214.99c-6.65,11.19-27.32,4.94-26.63-8,.48-9.01,6.92-20.07,17.32-18.33,3.63.61,8.54,4.2,10.11,7.58,2,4.33,1.67,14.61-.79,18.75Z"/>
          <path d="M408.36,186.97c-7.73-3.21-14.19-1.72-18.21,5.81-2.55,4.76-3.85,10.8-4.55,16.04-.42.49-.76.1-1.03-.64-.5-1.34-.16-3.63-.13-4.11,1.04-12.44,6.89-24.46,20.78-22.11,2.07.35,9.96,3.45,9.02,6.31-.79,2.42-4.67-.8-5.87-1.3Z"/>
        </g>
      </g>
    </g>
  </g>
</svg>